<svg width="720" height="720" viewBox="0 0 720 720" fill="none" xmlns="http://www.w3.org/2000/svg">
<rect width="720" height="720" rx="360" fill="#F9F5EC"/>
<path d="M401.804 289.852C404.235 287.232 408.091 287.17 410.577 289.71C412.958 292.143 413.302 296.169 411.375 299.063L343.435 401.045C338.132 409.006 327.925 410.521 320.944 404.385C313.525 397.862 312.983 385.603 319.787 378.268L401.804 289.852Z" fill="#25D366"/>
<path fill-rule="evenodd" clip-rule="evenodd" d="M132.32 297.064C164.432 171.797 292.39 96.2784 418.122 128.39C543.854 160.502 619.748 288.084 587.636 413.352C555.524 538.62 427.566 614.138 301.835 582.026C276.442 575.541 253.084 565.158 232.237 551.691L137.81 593.133C129.691 596.697 121.841 588.695 124.543 579.61L156.474 472.205L156.544 472.191C126.894 421.048 116.501 358.776 132.32 297.064ZM458.072 241.052C459.436 227.216 446.291 217.342 435.151 223.836L225.246 346.215C213.167 353.258 214.338 372.787 227.147 377.932L276.296 397.674C280.477 399.355 283.233 403.78 283.169 408.706L282.758 440.497C282.365 470.944 316.395 485.438 334.656 462.601L354.102 438.28C356.956 434.711 361.489 433.428 365.531 435.045L417.317 455.772C426.898 459.606 437.215 452.479 438.322 441.262L458.072 241.052Z" fill="#25D366"/>
</svg>
